<svg xmlns="http://www.w3.org/2000/svg" xmlns:xlink="http://www.w3.org/1999/xlink" width="100" height="100" viewBox="0 0 100 100"><g><g transform="translate(50 50) scale(0.69 0.69) rotate(0) translate(-50 -50)" style="fill:#000000"><svg fill="#000000" xmlns="http://www.w3.org/2000/svg" data-name="Layer 1" viewBox="0 0 100 100" x="0px" y="0px"><title>63</title><g data-name="Group"><path data-name="Compound Path" d="M86.8,25.4,51.3,9a3,3,0,0,0-2.5,0L13.2,25.4a3,3,0,0,0-1.7,2.7V71.9a3,3,0,0,0,1.7,2.7L48.7,91l1.3.3,1.3-.3L86.8,74.6a3,3,0,0,0,1.7-2.7V28.1A3,3,0,0,0,86.8,25.4ZM47,83.6,17.4,70V32.8L47,46.4ZM82.6,70,53,83.6V46.4L82.6,32.8Z"></path></g></svg></g></g></svg>